<?xml version="1.0" standalone="no"?>
<!DOCTYPE svg PUBLIC "-//W3C//DTD SVG 20010904//EN"
 "http://www.w3.org/TR/2001/REC-SVG-20010904/DTD/svg10.dtd">
<svg version="1.0" xmlns="http://www.w3.org/2000/svg"
 width="300.000000pt" height="300.000000pt" viewBox="0 0 300.000000 300.000000"
 preserveAspectRatio="xMidYMid meet">

<g transform="translate(0.000000,300.000000) scale(0.100000,-0.100000)"
fill="#000000" stroke="none">
<path d="M380 2251 c0 -214 4 -372 9 -375 14 -9 147 12 218 34 251 77 443 289
503 554 18 80 18 68 17 -1002 l-2 -1082 373 0 372 0 0 745 0 745 375 0 375 0
0 375 0 375 -375 0 -375 0 -1 -322 c-1 -291 -2 -317 -14 -263 -49 227 -201
414 -419 515 -139 65 -181 70 -646 70 l-410 0 0 -369z"/>
</g>
</svg>
